<svg xmlns="http://www.w3.org/2000/svg" viewBox="0 0 138.34 117.05"><defs><style>.cls-1{isolation:isolate;}.cls-2,.cls-3{fill:none;}.cls-2{stroke:#fff;stroke-width:2px;}</style></defs><g id="圖層_2" data-name="圖層 2"><g id="圖層_1-2" data-name="圖層 1"><g id="_02" data-name=" 02" class="cls-1"><g class="cls-1"><path class="cls-2" d="M59.27,31.83q6.6,9.9,6.6,26.7t-6.6,26.7c-4.7,6.9-11.2,10.4-19.5,10.4a22.15,22.15,0,0,1-19.5-10.4q-6.6-9.9-6.6-26.7t6.6-26.7c4.6-7,11.1-10.41,19.5-10.41A22.17,22.17,0,0,1,59.27,31.83Zm-31.5,9q-2.4,6.45-2.4,17.7t2.4,17.7c2.3,6.3,6.3,9.5,12,9.5s9.6-3.2,12-9.5q2.4-6.6,2.4-17.7,0-11.25-2.4-17.7c-2.4-6.4-6.4-9.5-12-9.5S30.07,34.43,27.77,40.83Z"/><path class="cls-2" d="M118,27.43a19.89,19.89,0,0,1,6.6,15.5c0,6.2-2.4,11.8-7,16.9-2.8,3-7.8,6.8-14.8,11.5-7.3,4.8-11.7,9-13.3,12.6h35.2v10.3H74.87a27.54,27.54,0,0,1,7.1-19c2.6-3,8.1-7.4,16.4-13.1a65.77,65.77,0,0,0,9.8-8,16.89,16.89,0,0,0,4.7-11.3c0-3.9-1.1-6.8-3.1-8.7s-5.2-2.8-9.3-2.8q-6.6,0-9.9,4.5c-2.2,2.8-3.4,7.1-3.6,12.7H75.27c.1-8,2.4-14.4,7-19.3q7-7.8,18.6-7.81Q111.22,21.42,118,27.43Z"/></g></g><rect class="cls-3" width="138.34" height="117.05"/><rect class="cls-3" width="138.34" height="117.05"/></g></g></svg>