<svg xmlns="http://www.w3.org/2000/svg" viewBox="0 0 138.34 117.05"><defs><style>.cls-1{isolation:isolate;}.cls-2,.cls-3{fill:none;}.cls-2{stroke:#fff;stroke-width:2px;}</style></defs><g id="圖層_2" data-name="圖層 2"><g id="圖層_1-2" data-name="圖層 1"><g id="_03" data-name=" 03" class="cls-1"><g class="cls-1"><path class="cls-2" d="M58.67,31.83q6.6,9.9,6.6,26.7t-6.6,26.7c-4.7,6.9-11.2,10.4-19.5,10.4a22.15,22.15,0,0,1-19.5-10.4q-6.6-9.9-6.6-26.7t6.6-26.7c4.6-7,11.1-10.41,19.5-10.41A22.17,22.17,0,0,1,58.67,31.83Zm-31.5,9q-2.4,6.45-2.4,17.7t2.4,17.7c2.3,6.3,6.3,9.5,12,9.5s9.6-3.2,12-9.5q2.4-6.6,2.4-17.7,0-11.25-2.4-17.7c-2.4-6.4-6.4-9.5-12-9.5S29.47,34.43,27.17,40.83Z"/><path class="cls-2" d="M117.37,26.62c4.3,3.51,6.5,8.31,6.5,14.51,0,7.8-4,13-11.9,15.6,4.2,1.3,7.5,3.2,9.7,5.8a15.13,15.13,0,0,1,3.6,10.4,20.94,20.94,0,0,1-6.9,16.2c-4.8,4.3-11.1,6.5-18.9,6.5-7.4,0-13.4-1.9-17.9-5.7-5-4.2-7.8-10.4-8.4-18.4h11.9c.2,4.6,1.6,8.2,4.4,10.7a14.07,14.07,0,0,0,9.9,3.5c4.5,0,8.1-1.3,10.7-3.8a11.54,11.54,0,0,0,3.5-8.5c0-4.1-1.3-7.1-3.7-9s-5.9-2.9-10.5-2.9h-5v-8.8h5q6.3,0,9.6-2.7c2.1-1.8,3.2-4.5,3.2-8s-1-6.1-2.9-7.9q-3.15-2.7-9.3-2.7c-4.2,0-7.4,1-9.7,3.1s-3.8,5.3-4.2,9.6H74.57c.6-7.2,3.2-12.8,8-16.8,4.5-4,10.3-5.91,17.3-5.91C107.07,21.42,113,23.12,117.37,26.62Z"/></g></g><rect class="cls-3" width="138.34" height="117.05"/></g></g></svg>