<svg xmlns="http://www.w3.org/2000/svg" viewBox="0 0 138.34 117.05"><defs><style>.cls-1{isolation:isolate;}.cls-2,.cls-3{fill:none;}.cls-2{stroke:#fff;stroke-width:2px;}</style></defs><g id="圖層_2" data-name="圖層 2"><g id="圖層_1-2" data-name="圖層 1"><g id="_04" data-name=" 04" class="cls-1"><g class="cls-1"><path class="cls-2" d="M57.67,31.83q6.6,9.9,6.6,26.7t-6.6,26.7c-4.7,6.9-11.2,10.4-19.5,10.4a22.15,22.15,0,0,1-19.5-10.4q-6.6-9.9-6.6-26.7t6.6-26.7c4.6-7,11.1-10.41,19.5-10.41A22.17,22.17,0,0,1,57.67,31.83Zm-31.5,9q-2.4,6.45-2.4,17.7t2.4,17.7c2.3,6.3,6.3,9.5,12,9.5s9.6-3.2,12-9.5q2.4-6.6,2.4-17.7,0-11.25-2.4-17.7c-2.4-6.4-6.4-9.5-12-9.5S28.47,34.43,26.17,40.83Z"/><path class="cls-2" d="M115.67,22.83v46.8h10.6v9.3h-10.6v15.3h-11.1V78.93H70.07V67.83l34.9-45Zm-36.1,46.8h25v-32h-.3Z"/></g></g><rect class="cls-3" width="138.34" height="117.05"/></g></g></svg>