<svg xmlns="http://www.w3.org/2000/svg" viewBox="0 0 85.09 85.09"><defs><style>.cls-1{fill:#1976d2;}.cls-2{fill:#fafafa;}</style></defs><g id="圖層_2" data-name="圖層 2"><g id="圖層_1-2" data-name="圖層 1"><g id="_733547" data-name=" 733547"><path id="Path_392" data-name="Path 392" class="cls-1" d="M74.45,0H10.64A10.65,10.65,0,0,0,0,10.64V74.45A10.65,10.65,0,0,0,10.64,85.09H74.45A10.66,10.66,0,0,0,85.09,74.45V10.64A10.65,10.65,0,0,0,74.45,0Z"/><path id="Path_393" data-name="Path 393" class="cls-2" d="M71.79,42.54H58.5V31.91c0-2.94,2.38-2.66,5.32-2.66h5.31V16H58.5a16,16,0,0,0-16,16h0V42.54H31.91v13.3H42.54V85.09h16V55.84h8Z"/></g></g></g></svg>