<svg xmlns="http://www.w3.org/2000/svg" viewBox="0 0 86 86"><defs><style>.cls-1{fill:#ff7800;}.cls-2{isolation:isolate;}.cls-3{fill:#fff;}</style></defs><g id="圖層_2" data-name="圖層 2"><g id="圖層_1-2" data-name="圖層 1"><g id="Group_814" data-name="Group 814"><g id="Rectangle_104" data-name="Rectangle 104"><rect class="cls-1" width="86" height="86" rx="8"/></g><g id="_104" data-name=" 104" class="cls-2"><g class="cls-2"><path class="cls-3" d="M26.41,55.54H20.48V36.89A30,30,0,0,1,12,41.25V36.17a20.06,20.06,0,0,0,9.81-7.39h4.6Z"/><path class="cls-3" d="M50.87,42.22q.24,13.94-10.29,13.69c-6.78-.17-10.22-4.68-10.3-13.57q.38-13.56,10.3-14Q50.75,28.42,50.87,42.22Zm-6.3.12q.12-9.81-3.87-9.56-4.12-.12-4.12,9.56,0,9.33,4.12,9.33T44.57,42.34Z"/><path class="cls-3" d="M74.24,50H71v5.57H65.76V50H52.69V46.22L65.28,28.78H71V45.73h3.27Zm-8.35-15.5a13.44,13.44,0,0,1-1.09,1.94l-6.54,9.32h7.5V37.26A22,22,0,0,1,65.89,34.47Z"/></g></g></g></g></g></svg>