<svg xmlns="http://www.w3.org/2000/svg" width="191.428" height="24.165" viewBox="0 0 191.428 24.165">
  <g id="Group_1006" data-name="Group 1006" transform="translate(-278.367 -131.276)">
    <g id="Group_1002" data-name="Group 1002" transform="translate(278.367 131.277)">
      <g id="Group_1001" data-name="Group 1001">
        <path id="Path_519" data-name="Path 519" d="M301.724,138.925a12.115,12.115,0,0,1-15.135,15.893,12.12,12.12,0,0,1-1.9-22.117,12.127,12.127,0,0,1,17.036,6.224Z" transform="translate(-278.367 -131.277)" fill="#009e96"/>
        <path id="Path_520" data-name="Path 520" d="M291.054,140.925c.409-.123.937-.444,1.346-.123.288.445,1.08.592.864,1.21a8.157,8.157,0,0,0,1.392,1.507c.121.025.168-.049.217-.123l-.144-.074c.169-.149.576.1.84-.05a.652.652,0,0,1,.529.222,3.882,3.882,0,0,0,.312.643l.1-.049a5.115,5.115,0,0,0,.312.617c.866.3,1.274,1.358,2.042,1.8a11.716,11.716,0,0,0,3.025,1.665c-.048.148.121.148.192.2v.024a.685.685,0,0,0-.48-.1c.145.223.5.124.577.37h-.385c0,.075.1.075.145.1-.192-.074-.385.074-.5-.173a15.5,15.5,0,0,1-2.209-1.1l-.023.024a9,9,0,0,0,1.945,1.121c.215.124.527.2.647.42-.072.025-.192.025-.215.124l-.168-.1c-.048.025,0,.074-.025.1l.121.1a9.551,9.551,0,0,1-2.473-1.295c-.361-.247-.721-.444-1.081-.716-.048,0-.12-.025-.145.049.409.321.841.518,1.249.815a6.813,6.813,0,0,1-2.234-1.655c-.264-.273-.648-.84-1.1-.741-.168.1-.432.074-.625.172-.143,0-.264-.172-.408-.049-.12.272-.5.049-.577.345-.24.1-.672.026-.744.322l.024.123c-.48.222-1.129.149-1.464.618-.1.1-.289-.025-.384.1a.074.074,0,0,0-.073-.1c-.121-.05-.192.073-.289.1-.071-.123.1-.148.073-.222-.216-.1-.312.2-.48.3.024-.2.24-.222.312-.395-.12-.074-.216.049-.312.074.048-.024.143-.2,0-.2.12-.2.384-.123.456-.345h-.192c.192-.148.408-.32.576-.469-.071,0-.217-.2-.336-.025,0-.025.048-.049.024-.074-.1-.1-.216.074-.336.074,0,.025.024-.074-.048-.1h-.071c.071-.05.168-.173.264-.247l-.049-.049a12.292,12.292,0,0,1,1.082-.643l.071-.074a.246.246,0,0,0-.384,0c.313-.024.024-.37.336-.419a.984.984,0,0,1,.48-.593c-.312-.3-.433-.841-.793-1.013-.024-.222-.24,0-.263-.222-.433-.026-.937.2-1.226-.2a1.772,1.772,0,0,0-.72-.025,2.378,2.378,0,0,0-.384.617,2.309,2.309,0,0,0-.431.618,1.951,1.951,0,0,1-.865.79v-.049c-.264.37-.841.222-1.177.617l-.024-.1a.2.2,0,0,0-.24.149v.049c-.168-.049-.288.148-.359.247-.409.445-1.081.445-1.513.816-.049.024.023,0,0-.025-.793.173-1.178.79-1.706,1.383a3.308,3.308,0,0,1-.575.592c.048.2-.241.272-.336.372.1-.173.311-.322.336-.519-.193.1-.241.321-.457.42-.121-.1.121-.173.048-.272l-.289.223.265-.37c-.145.024-.289.272-.456.3-.048.074-.121.074-.217.074v-.024a5.383,5.383,0,0,0,.408-.4c-.168-.1-.36.124-.481.1-.048-.025-.023-.149-.143-.1.12-.1.24-.173.289-.32-.1-.025-.216.049-.313.1.024-.124.265-.2.193-.4-.312-.05-.264.272-.528.345.264-.37.648-.593.912-.988l-.024-.025a6.909,6.909,0,0,1,1.753-1.285c.505-.3,1.176-.444,1.538-.938a4.011,4.011,0,0,0,.384-.568c.071.025.1-.049.12-.1a2.218,2.218,0,0,1,1.178-.37c.192-.2.552-.074.7-.347.5-.617.7-1.383,1.128-2,.145-.2.312-.519.6-.593A11.56,11.56,0,0,1,291.054,140.925Z" transform="translate(-279.337 -135.157)" fill="#fff"/>
        <g id="Group_1000" data-name="Group 1000" transform="translate(11.043 10.04)">
          <path id="Path_521" data-name="Path 521" d="M298.518,148.619c-.121.1-.365.177-.389.327-.219-.026-.363.2-.534.2.024-.2.315-.075.34-.278l.195-.152.024.077c.074-.077.316-.026.244-.228Z" transform="translate(-297.474 -148.569)" fill="#fff"/>
          <path id="Path_522" data-name="Path 522" d="M297.654,148.916a.382.382,0,0,1-.267.2C297.435,148.993,297.532,148.993,297.654,148.916Z" transform="translate(-297.387 -148.715)" fill="#fff"/>
          <path id="Path_523" data-name="Path 523" d="M298.364,149.941c0,.051-.048.051-.073.1h-.073c-.024-.076.049-.1.1-.127C298.34,149.916,298.34,149.941,298.364,149.941Z" transform="translate(-297.734 -149.134)" fill="#fff"/>
        </g>
      </g>
    </g>
    <g id="Group_1003" data-name="Group 1003" transform="translate(403.384 143.338)">
      <path id="Path_524" data-name="Path 524" d="M493.685,152.269h5.826V153.6h-4.244v1.745h3.949v1.327h-3.949v2.13h4.389v1.325h-5.971Z" transform="translate(-493.685 -152.142)" fill="#009e96"/>
      <path id="Path_525" data-name="Path 525" d="M514.7,157.335a1.6,1.6,0,0,0,1.711,1.5c1.107,0,1.549-.581,1.549-1.083,0-.66-.55-.8-2-1.151-.773-.2-2.509-.626-2.509-2.358,0-.859.559-2.192,2.864-2.192,1.536,0,2.941.6,3.005,2.375l-1.588.07c-.069-.408-.187-1.145-1.438-1.145-.474,0-1.329.145-1.329.781,0,.5.492.723,1.757,1.02,1.2.286,2.819.671,2.819,2.6a2.3,2.3,0,0,1-1.285,2.062,4.474,4.474,0,0,1-1.854.352,2.865,2.865,0,0,1-3.239-2.691Z" transform="translate(-501.855 -152.05)" fill="#009e96"/>
      <path id="Path_526" data-name="Path 526" d="M530.584,152.269v4.247a3.543,3.543,0,0,0,.2,1.691,1.488,1.488,0,0,0,1.394.689c1.511,0,1.511-.952,1.511-2.292v-4.334h1.583V156.4a5.155,5.155,0,0,1-.437,2.778,2.949,2.949,0,0,1-2.613,1.083c-3.216,0-3.216-1.983-3.216-3.8v-4.193Z" transform="translate(-508.497 -152.142)" fill="#009e96"/>
      <path id="Path_527" data-name="Path 527" d="M545.363,152.269H546.9l3.194,5.247h.022v-5.247h1.47v7.855H550L546.854,155h-.022v5.12h-1.469Z" transform="translate(-515.358 -152.142)" fill="#009e96"/>
      <path id="Path_528" data-name="Path 528" d="M566.944,152.269h5.39V153.6h-3.805v1.867h3.291v1.325h-3.291v3.335h-1.584Z" transform="translate(-524.409 -152.142)" fill="#009e96"/>
      <path id="Path_529" data-name="Path 529" d="M580.817,152.269h1.58v3.1h3.1v-3.1h1.581v7.855H585.5v-3.432h-3.1v3.432h-1.58Z" transform="translate(-530.227 -152.142)" fill="#009e96"/>
      <path id="Path_530" data-name="Path 530" d="M603.127,157.629a3.1,3.1,0,0,1-3.259,2.536c-2.129,0-3.579-1.55-3.579-3.995,0-2.183,1.107-4.121,3.666-4.121a3.356,3.356,0,0,1,2.4.9,3.008,3.008,0,0,1,.745,1.409l-1.568.369a1.617,1.617,0,0,0-1.657-1.319c-1.955,0-1.955,2.153-1.955,2.658a3.728,3.728,0,0,0,.419,1.974,1.756,1.756,0,0,0,1.514.768c1.052,0,1.536-.8,1.734-1.656Z" transform="translate(-536.716 -152.05)" fill="#009e96"/>
      <path id="Path_531" data-name="Path 531" d="M508.247,163.336a1.013,1.013,0,1,0-1.012,1.015A1.014,1.014,0,0,0,508.247,163.336Z" transform="translate(-498.942 -156.358)" fill="#009e96"/>
    </g>
    <path id="Path_532" data-name="Path 532" d="M383.485,151.024h3.469V140.929h2.488v13.663h-2.488v-1.125l-9.546-.025,0,1.15h-2.581V140.809h2.56v10.215L380.9,151v-12.39h2.585Z" transform="translate(-40.452 -3.075)" fill="#009e96"/>
    <g id="Group_1004" data-name="Group 1004" transform="translate(310.984 135.819)">
      <path id="Path_533" data-name="Path 533" d="M343.588,152.041v-4.454h5.31v-2.434l-5.31-.025v-3.512h5.69l0-2.517H335.331v2.517h5.624v3.512H335.69v2.459h5.265v4.454h-6.412v2.471h15.428v-2.471Z" transform="translate(-334.543 -139.099)" fill="#009e96"/>
      <path id="Path_534" data-name="Path 534" d="M353.437,154.995a1.517,1.517,0,0,0-.718,2.414,1.531,1.531,0,0,0,2.653-.571,1.634,1.634,0,0,0-.188-1.223A1.536,1.536,0,0,0,353.437,154.995Z" transform="translate(-342.023 -145.737)" fill="#009e96"/>
    </g>
    <path id="Path_535" data-name="Path 535" d="M425.745,149.139l-1.864-.678h2.373v-2.077h-4.641v-1h2.25v-1.306a17.633,17.633,0,0,0,3.651,2.217l1.538-2.387a12.427,12.427,0,0,1-7.067-5.289h0c.07-.139.1-.214.1-.214l-3.036-.294a11.659,11.659,0,0,1-6.462,6.29l1.1,2.441a26.625,26.625,0,0,0,3.273-2.3v.842h2.251v1h-4.641v2.077h2.615l-1.879.708.878,2.806h-2.9V154.1h14.24v-2.127h-3.122Zm-7.389-5.836a22.193,22.193,0,0,0,2.23-2.5,17.088,17.088,0,0,0,2.35,2.5h-4.58Zm-1.848,8.673,2.141-.809-1.284-2.705h1.854v3.514Zm5.1-3.514h1.831l-1.26,2.687,2.068.828h-2.639Z" transform="translate(-56.291 -2.865)" fill="#009e96"/>
    <g id="Group_1005" data-name="Group 1005" transform="translate(379.334 135.577)">
      <path id="Path_536" data-name="Path 536" d="M464.9,142.73h5.383v1.5h2.07v-3.382h-3.733v-2.165h-2.057v2.165h-3.733v3.382h2.07Z" transform="translate(-456.697 -138.684)" fill="#009e96"/>
      <path id="Path_537" data-name="Path 537" d="M464.19,149.717h2.49v-1.473c.16.13.326.257.5.377l1.54-1.368a8.364,8.364,0,0,1-3.36-3.714l-1.8.8a13.311,13.311,0,0,0,2.551,3.395h-5.884a13.3,13.3,0,0,0,2.551-3.395l-1.8-.8a8.391,8.391,0,0,1-2.815,3.369v-1.518l-1.46.323v-1.655h1.367v-2.1h-1.367v-3.273h-2.115v3.273h-2.025v2.1h2.025v2.123l-2.315.513.394,2.306,1.921-.528v3.521a.413.413,0,0,1-.413.413h-1.082l.873,2.2h.65a2.085,2.085,0,0,0,2.086-2.086v-4.633l1.247-.343,1.208,1.072c.172-.121.337-.247.5-.377v1.473h2.491V152.4h-4v1.978H468.19V152.4h-4Z" transform="translate(-452.263 -138.684)" fill="#009e96"/>
    </g>
  </g>
</svg>
