<svg viewBox="0 0 372.15 82.45" xmlns="http://www.w3.org/2000/svg"><path d="m209.09 54.76h12.03v-34.99h8.62v46.6h-8.62v-3.15l-33.08-.08-.08 2.98h-8.87v-46.76h8.87v35.4l12.19-.09v-42.93h8.94z" fill="#009e96"/><path d="m159.18 21.4-19.56.04-.15.17v11.93l18.4.17v8.45h-18.49l-.09 15 22.3.09v8.63h-53.46v-8.55l22.22-.08v-15l-18.25-.09v-8.53h18.25v-12.27l-19.49-.17v-8.45h48.34z" fill="#009e96"/><path d="m100.31-33.16a5.65 5.65 0 0 1 .65 4.22 5.41 5.41 0 0 1 -3.47 3.64 5.47 5.47 0 0 1 -5.72-1.65 5.3 5.3 0 0 1 -1.17-3.9 5.32 5.32 0 0 1 3.65-4.47 5.31 5.31 0 0 1 6.06 2.16z" fill="#009e96" transform="translate(53.09 80.05)"/><path d="m222.21-59.53.12.25a66.78 66.78 0 0 0 6.86 7.77v.51h-14v-.25c4-4.5 6.23-7.24 6.67-8.25zm-5.6-9.26q-4.87 9.63-8.85 12.58-6.8 6.91-13.66 9v.61l.73.89a21.32 21.32 0 0 1 2.34 4.89c.24 1.16.48 1.66.72 1.51h1.11a62 62 0 0 0 10.77-6.81h.12l.12.78c-.08 1.2 0 1.72.25 1.56h7v3.62h-4.21l-10.83-.12-.22.28v6.92l.25.23 6.86-.12v.37l-.49.35-4.81 1.64v.71l.12.13a42.84 42.84 0 0 1 2.77 8.48v.6l-9.63-.12-.25.25v7.29l.25.22a12.24 12.24 0 0 0 3.32-.22h45.85l.36-.25v-7.17l-.36-.23a10.84 10.84 0 0 0 -3.19.23h-7.4v-.36a53.07 53.07 0 0 0 4.45-9.08v-.48l-2.1-.91c-2.13-.55-3.15-1-3.07-1.2v-.28h7.64l.23-.17v-7l-.23-.38a7.94 7.94 0 0 0 -3.31.38h-13.6v-3.62h8.24l.24-.23v-3.07l.12-.24.06.11a62.81 62.81 0 0 0 7.1 4.1c2.57 1 3.9 1.73 4 2h1.2a22.55 22.55 0 0 1 4.69-7.28v-.73c0-.24-.32-.35-1-.35a45.34 45.34 0 0 1 -23.31-17.08v-.6l.36-.49v-.35l-1.14-.3a53.28 53.28 0 0 0 -9.57-.59zm.66 48.08h-8.18v-.23l.18-.26 6-2.34v-.46c-1.89-4.86-3.33-7.72-4.34-8.61v-.39h6.32zm10.47-3.07v.36c3.21.94 5.14 1.67 5.79 2.22v.49h-7.89v-12.29h6.36a35.57 35.57 0 0 1 -4.26 9.22z" fill="#009e96" transform="translate(53.09 80.05)"/><path d="m271.1-68.43 7.53.3.23.25v.48l-.36 1.07v9.88l4.58-.13.24.25v7.17l-.24.23-4.58-.13v6h.36l4.22-1.15h.36l.24.25-.24 4.82a26.62 26.62 0 0 0 10-11.5h.48l5.3 2.22.36.3v.48a55.45 55.45 0 0 1 -8.25 11.2v.12q0 .72 7.53.48h11.14l1.75-.37v-.35a39.83 39.83 0 0 1 -9.11-11.44v-.54l5.06-2.6h.89q1.92 4.57 9.46 10.12l1 .54v.48a42.3 42.3 0 0 1 -3.84 5.17l-.13.12h-.72l-.84-.48h-.36v6.14l-.18.24-8.25-.12v8.37h10.27l2.46-.24h.36l.25.24v6.91l-.25.25c-.08-.25-4.43-.32-13.06-.25h-19.1l-2.45.25h-.31l-.24-.25v-7l.24-.23q0 .42 13.6.36h.85v-8.37h-7.65q.6.12-1.32.12c-.2.16-.29-.37-.24-1.56v-3l-.06-.12h-.08l-.6.36h-.48a14.67 14.67 0 0 0 -3.92-3.5l-.36-.13h-.36l-3.67 1.09-.13.06v17.88q-.9 5-7 5.89h-2.59c-.23.08-.51-.67-.83-2.22a22.88 22.88 0 0 0 -2.24-5.31v-.35c-.15-.24.32-.32 1.45-.24h2.95a1.44 1.44 0 0 0 .9-.9v-12.58h-.24l-5.72 1.74h-.84q-1-1.62-1.38-8.12-.24-.36 1.38-.36a40.6 40.6 0 0 0 6.68-1l.12-.13v-7.77h-4.69l-2 .25h-.25l-.24-.25v-7.27l.24-.25 6.32.13h.6v-9.63l-.24-2v-.11zm25.88.3h7.17l.35.25a25.1 25.1 0 0 0 -.48 7.51h13.78l.25.25v11.31l-.25.25h-6.86c-.2.15-.27-.37-.24-1.57v-3.49l-.05-.13h-18.85v5.06l-.24.24h-6.8l-.24-.24v-11.43l.24-.25h12v-7.51z" fill="#009e96" transform="translate(53.09 80.05)"/><path d="m25.74-53.95c6.08 15.8 1.77 34.45-10.56 45.58a40.74 40.74 0 0 1 -40.52 8.64 41.08 41.08 0 0 1 -27.66-37.04 41.15 41.15 0 0 1 21.25-38.43c12.66-7.42 31.65-6.21 43.22 2.77a41.89 41.89 0 0 1 14.27 18.48z" fill="#009e96" transform="translate(53.09 80.05)"/><path d="m-14.28-60.85c1.44-.44 3.29-1.56 4.73-.44 1 1.56 3.8 2.08 3 4.23a28.86 28.86 0 0 0 4.9 5.27c.42.08.59-.17.76-.44l-.51-.25c.59-.52 2 .34 3-.18a2.3 2.3 0 0 1 1.86.78 13.63 13.63 0 0 0 1.1 2.24l.34-.16a18 18 0 0 0 1.1 2.15c3 1 4.48 4.75 7.18 6.3 3.29 2.51 6.75 5 10.64 6.48-.17.52.42.52.67.69v.09a2.43 2.43 0 0 0 -1.69-.35c.51.78 1.78.43 2 1.3h-1.34c0 .26.34.26.5.34-.67-.25-1.35.26-1.76-.6a56.94 56.94 0 0 1 -7.78-4.49l-.08.09c1.94 1.89 4.64 3.27 6.84 4.57.76.43 1.86.69 2.28 1.47-.26.09-.68.09-.76.43l-.59-.34c-.17.09 0 .26-.09.34l.42.35a36.63 36.63 0 0 1 -8.69-5.18c-1.26-.87-2.53-1.56-3.8-2.51-.17 0-.42-.08-.5.18 1.43 1.12 3 1.81 4.38 2.84a23.92 23.92 0 0 1 -7.83-5.78c-.92-1-2.28-2.94-3.88-2.59-.6.34-1.52.26-2.2.61-.5 0-.92-.61-1.44-.17-.42.94-1.76.17-2 1.2-.84.35-2.36.09-2.61 1.12l.08.43c-1.69.78-4 .52-5.15 2.16-.34.35-1-.08-1.35.35a.26.26 0 0 0 -.25-.35c-.43-.17-.68.26-1 .35-.26-.43.33-.52.25-.78-.76-.35-1.1.69-1.69 1 .08-.68.85-.77 1.1-1.38-.43-.26-.77.18-1.1.27.17-.09.5-.7 0-.7.42-.69 1.35-.43 1.6-1.2h-.67c.67-.52 1.43-1.13 2-1.65-.25 0-.75-.68-1.18-.09 0-.08.17-.16.09-.25-.34-.34-.76.25-1.19.25 0 .09.09-.25-.17-.34h-.24c.25-.17.6-.6.93-.86l-.17-.17c1.27-.78 2.53-1.64 3.8-2.25l.25-.25a.86.86 0 0 0 -1.35 0c1.1-.1.09-1.31 1.19-1.48a3.42 3.42 0 0 1 1.65-2.04c-1.1-1-1.53-2.93-2.79-3.54-.09-.77-.85 0-.93-.77-1.52-.09-3.29.69-4.31-.7a6.35 6.35 0 0 0 -2.53-.08 8.37 8.37 0 0 0 -1.35 2.16 7.94 7.94 0 0 0 -1.52 2.17 6.84 6.84 0 0 1 -3 2.76v-.17c-.93 1.29-2.95.77-4.13 2.16l-.09-.35a.7.7 0 0 0 -.84.52v.17c-.59-.17-1 .52-1.27.86-1.44 1.56-3.8 1.56-5.32 2.85-.17.09.08 0 0-.08-2.79.6-4.14 2.76-6 4.83a11 11 0 0 1 -2 2.07c.17.7-.84 1-1.18 1.3.34-.6 1.1-1.12 1.18-1.82-.68.35-.84 1.13-1.6 1.47-.42-.34.42-.6.16-1l-1 .78.93-1.3c-.5.09-1 .95-1.6 1-.17.26-.43.26-.76.26v-.08c.33-.27.93-.87 1.43-1.38-.59-.35-1.26.42-1.68.34-.17-.09-.09-.52-.51-.34.42-.35.84-.61 1-1.13-.34-.09-.76.17-1.1.34.09-.43.93-.68.68-1.38-1.1-.17-.93 1-1.86 1.21.93-1.29 2.28-2.07 3.21-3.45l-.08-.09a24.21 24.21 0 0 1 6.16-4.49c1.77-1 4.13-1.55 5.4-3.28a13.72 13.72 0 0 0 1.35-2c.26.09.34-.17.42-.34a7.89 7.89 0 0 1 4.08-1.24c.67-.7 1.95-.27 2.44-1.21 1.78-2.16 2.45-4.84 4-7 .5-.68 1.09-1.81 2.11-2.07a40.18 40.18 0 0 1 7.32 1.43z" fill="#fff" transform="translate(53.09 80.05)"/><path d="m57.64 29.47-.34-1.13.34.96z" fill="#009e96"/><path d="m5.14-48.86c-.34-.08-.25-.34-.43-.6a1 1 0 0 1 .43.6z" fill="#009e96" transform="translate(53.09 80.05)"/><path d="m-35.13-48.25c-.25-.52.42-.69.68-1.12a2 2 0 0 1 -.68 1.12z" fill="#009e96" transform="translate(53.09 80.05)"/><path d="m26.07 31.98v-.09h.24z" fill="#009e96"/><path d="m-28.79-47.56c-.18.17-.26.43-.51.34 0-.26.3-.51.51-.34z" fill="#009e96" transform="translate(53.09 80.05)"/><path d="m-12.59-46.09c-.42.34-1.26.6-1.35 1.12-.76-.09-1.27.69-1.86.69.09-.69 1.1-.26 1.18-.95l.68-.52.09.26c.25-.26 1.09-.09.84-.77z" fill="#fff" transform="translate(53.09 80.05)"/><g fill="#009e96"><path d="m-15.29-45.58a1.29 1.29 0 0 1 -.93.69c.22-.42.51-.42.93-.69z" transform="translate(53.09 80.05)"/><path d="m-32.68-44.54c.17.26-.17 0-.26.17.09-.08.17-.17.26-.17z" transform="translate(53.09 80.05)"/><path d="m39.4 35.94h.25v.26h-.25z"/><path d="m-14-43.5c0 .17-.16.17-.25.34h-.25c-.09-.25.17-.34.34-.42s.05.08.16.08z" transform="translate(53.09 80.05)"/><path d="m-12.42-41.86c-.09.35-.51.35-.67.43-.26-.08.08-.17.08-.35.25.09.34-.17.59-.08z" transform="translate(53.09 80.05)"/><path d="m-12.25-41.35c-.09.35-.68.35-1 .61-.08-.34.43-.52.68-.69.06.08.32 0 .32.08z" transform="translate(53.09 80.05)"/><path d="m8-40.48c.34.17.51.6.76.86l-.25.26a6.1 6.1 0 0 1 -1.27-2c.26.28.43.71.76.88z" transform="translate(53.09 80.05)"/><path d="m20.16-35.91c-.25.18-.59-.16-.84-.25z" transform="translate(53.09 80.05)"/><path d="m22.53-34.61c-.68-.43-1.6-.43-2.11-1a4.77 4.77 0 0 1 2.11 1z" transform="translate(53.09 80.05)"/><path d="m68.19 45.36-1.01-.78.68.34z"/><path d="m75.37 47.95.08-.18.25.18z"/><path d="m21.94-31.67h-.34v-.18c.08.09.25.09.34.18z" transform="translate(53.09 80.05)"/></g></svg>